<svg width="118" height="30" viewBox="0 0 118 30" fill="none" xmlns="http://www.w3.org/2000/svg">
<path d="M16.2543 30C16.2543 30 17.8264 26.0957 18.6124 24.2751C18.1944 24.5314 18.5098 24.3156 18.0243 24.4774C17.5523 24.6392 17.033 24.7539 16.4666 24.8213C15.9137 24.8887 15.2933 24.9225 14.6055 24.9225C13.4457 24.9225 12.3533 24.7067 11.3284 24.2751C10.3169 23.8301 9.42684 23.1827 8.65812 22.3331C7.9029 21.4835 7.30276 20.445 6.85772 19.2178C6.42616 17.9771 6.21038 16.5678 6.21038 14.9899C6.21038 13.4255 6.41268 12.0297 6.81726 10.8024C7.22185 9.57518 7.78827 8.54349 8.51652 7.70735C9.25826 6.85772 10.1416 6.21039 11.1666 5.76534C12.1915 5.3203 13.3176 5.09778 14.5448 5.09778C15.6507 5.09778 16.561 5.21241 17.2758 5.44167C18.004 5.67094 18.6042 5.92717 19.0762 6.21038C19.5617 6.49359 19.9663 6.74983 20.2899 6.9791C20.6271 7.20836 20.9575 7.32299 21.2812 7.32299C21.6049 7.32299 21.8611 7.25556 22.0499 7.1207C22.2387 6.98584 22.3938 6.83075 22.5152 6.65543L24.5583 3.86379C23.9919 3.29737 23.3513 2.77815 22.6365 2.30614C21.9353 1.82063 21.1666 1.40931 20.3304 1.07215C19.4943 0.734998 18.5907 0.472018 17.6197 0.283211C16.6622 0.0944038 15.644 0 14.5651 0C13.122 0 11.7599 0.168578 10.4788 0.505733C9.21106 0.829401 8.03776 1.30816 6.95887 1.94201C5.87997 2.56238 4.90897 3.3176 4.04585 4.20769C3.19622 5.09777 2.46797 6.09575 1.86109 7.20162C1.25421 8.30749 0.788941 9.52124 0.465273 10.8429C0.155091 12.151 0 13.5334 0 14.9899C0 17.1612 0.330411 19.1639 0.991234 20.998C1.65206 22.8321 2.59609 24.4167 3.82333 25.7519C5.05057 27.087 6.54079 28.1322 8.294 28.8874C10.0472 29.6291 12.0229 30 14.2212 30H16.2543Z" fill="#333333"/>
<path d="M39.9326 18.53L36.7566 9.5482C36.5678 9.07619 36.3655 8.52325 36.1498 7.8894C35.9475 7.25555 35.7519 6.56776 35.5631 5.82602C35.3743 6.58124 35.172 7.28252 34.9562 7.92986C34.7539 8.56371 34.5584 9.11665 34.3696 9.58866L31.2138 18.53H39.9326ZM46.2668 19.7359L45.4807 20.4505L43.4084 23.7375C42.9082 24.4521 42.5699 25.9151 42.408 25.524L41.4094 22.7377H29.7169L27.7344 28.3412C27.5995 28.6783 27.3635 28.9885 27.0264 29.2717C26.6892 29.5415 26.2644 29.6763 25.7519 29.6763H20.998L32.468 0.323658H38.6784L46.2668 19.7359Z" fill="#333333"/>
<path d="M65.118 5.9474C64.9292 6.25759 64.7336 6.48685 64.5313 6.6352C64.3425 6.77006 64.093 6.83749 63.7828 6.83749C63.4861 6.83749 63.1625 6.73635 62.8118 6.53405C62.4747 6.31827 62.0768 6.08901 61.6183 5.84626C61.1598 5.60351 60.6338 5.38098 60.0404 5.17869C59.447 4.96291 58.7525 4.85502 57.9568 4.85502C56.5542 4.85502 55.5023 5.17195 54.801 5.8058C54.0998 6.42616 53.7491 7.24208 53.7491 8.25354C53.7491 8.90088 53.9379 9.44032 54.3155 9.87188C54.7066 10.29 55.2124 10.6541 55.8327 10.9643C56.4666 11.2744 57.1813 11.5509 57.977 11.7937C58.7727 12.0364 59.5886 12.3061 60.4248 12.6028C61.2609 12.886 62.0768 13.2232 62.8725 13.6143C63.6682 14.0054 64.3762 14.4976 64.9966 15.091C65.6304 15.6844 66.1362 16.4127 66.5138 17.2758C66.9049 18.1254 67.1004 19.1639 67.1004 20.3911C67.1004 21.7262 66.8644 22.9804 66.3924 24.1537C65.9339 25.3136 65.2663 26.3318 64.3897 27.2084C63.5131 28.0715 62.4275 28.7525 61.1328 29.2515C59.8516 29.7505 58.3951 30 56.7633 30C55.8327 30 54.9022 29.9056 53.9716 29.7168C53.0546 29.528 52.1645 29.265 51.3014 28.9278C50.4517 28.5907 49.6493 28.1861 48.8941 27.7141C48.1389 27.2421 47.478 26.7161 46.9116 26.1362L48.6918 23.2637C48.8401 23.0479 49.0357 22.8726 49.2784 22.7377C49.5212 22.5893 49.7774 22.5152 50.0472 22.5152C50.4113 22.5152 50.7956 22.65 51.2002 22.9198C51.6048 23.1895 52.0701 23.4862 52.596 23.8098C53.122 24.1335 53.7289 24.4302 54.4167 24.6999C55.118 24.9697 55.9541 25.1045 56.9251 25.1045C58.3412 25.1045 59.4335 24.7808 60.2022 24.1335C60.9844 23.4862 61.3755 22.5219 61.3755 21.2407C61.3755 20.499 61.18 19.8989 60.7889 19.4403C60.4113 18.9818 59.9123 18.5974 59.2919 18.2873C58.6716 17.9771 57.9635 17.7141 57.1679 17.4983C56.3722 17.269 55.5563 17.0196 54.7201 16.7498C53.884 16.4801 53.0681 16.1564 52.2724 15.7788C51.4767 15.4012 50.7687 14.9022 50.1483 14.2819C49.5279 13.6615 49.0222 12.8928 48.6311 11.9757C48.2535 11.0587 48.0647 9.91908 48.0647 8.55698C48.0647 7.4646 48.2805 6.40594 48.712 5.38098C49.1436 4.35604 49.7774 3.44572 50.6136 2.65003C51.4497 1.85435 52.4747 1.21376 53.6884 0.728253C54.9157 0.242751 56.3182 0 57.8961 0C59.6628 0 61.2946 0.276467 62.7916 0.829401C64.302 1.36885 65.5765 2.12407 66.6149 3.09508L65.118 5.9474Z" fill="#333333"/>
<path d="M77.4108 5.07753V12.6231H83.7107C83.505 14.4164 83.5108 15.4218 83.7107 17.2151H77.4108V24.9224H86.0688C87.3512 27.0616 88.2375 28.0714 89.9934 29.6763H71.3015V0.323658H89.9934C88.1675 2.00341 87.3044 3.04201 86.0688 5.07753H77.4108Z" fill="#333333"/>
<path d="M117.869 14.9899C117.869 17.1342 117.505 19.1234 116.777 20.9575C116.062 22.7916 115.044 24.3763 113.722 25.7114C112.414 27.0465 110.836 28.0984 108.989 28.8672C107.141 29.6224 105.091 30 102.839 30C100.587 30 98.5368 29.6224 96.6892 28.8672C94.8416 28.0984 93.257 27.0465 91.9353 25.7114C90.6137 24.3763 89.5887 22.7916 88.8605 20.9575C88.1457 19.1234 87.7883 17.1342 87.7883 14.9899C87.7883 12.8456 88.1457 10.8631 88.8605 9.04248C89.5887 7.20836 90.6137 5.62374 91.9353 4.2886C93.257 2.95347 94.8416 1.90829 96.6892 1.15307C98.5368 0.384356 100.587 0 102.839 0C105.091 0 107.141 0.384356 108.989 1.15307C110.836 1.90829 112.414 2.96022 113.722 4.30883C115.044 5.64396 116.062 7.22859 116.777 9.06271C117.505 10.8833 117.869 12.8591 117.869 14.9899ZM111.659 14.9899C111.659 13.4525 111.457 12.0769 111.052 10.8631C110.647 9.63587 110.061 8.59744 109.292 7.74781C108.537 6.88469 107.613 6.23061 106.521 5.78557C105.442 5.32704 104.214 5.09778 102.839 5.09778C101.463 5.09778 100.229 5.32704 99.1369 5.78557C98.0446 6.23061 97.114 6.88469 96.3453 7.74781C95.5901 8.59744 95.0102 9.63587 94.6056 10.8631C94.201 12.0769 93.9987 13.4525 93.9987 14.9899C93.9987 16.5408 94.201 17.9299 94.6056 19.1571C95.0102 20.3709 95.5901 21.4026 96.3453 22.2522C97.114 23.1018 98.0446 23.7559 99.1369 24.2144C100.229 24.6595 101.463 24.882 102.839 24.882C104.214 24.882 105.442 24.6595 106.521 24.2144C107.613 23.7559 108.537 23.1018 109.292 22.2522C110.061 21.4026 110.647 20.3709 111.052 19.1571C111.457 17.9299 111.659 16.5408 111.659 14.9899Z" fill="#333333"/>
</svg>
